<svg
    class="icon"
    version="1.1"
    id="Layer_1"
    xmlns="http://www.w3.org/2000/svg"
    xmlns:xlink="http://www.w3.org/1999/xlink"
    xml:space="preserve"
>
        <symbol id="microblogs_icon">
            <g id="SVGRepo_iconCarrier">
              <path
                style="fill: #c4df64"
                d="M393.697,443.752H101.09V22.053h292.607c9.507,0,17.212,7.706,17.212,17.212v387.274 C410.909,436.046,403.203,443.752,393.697,443.752z"
              ></path>
              <rect
                x="101.089"
                y="22.053"
                style="fill: #ff8c78"
                width="51.637"
                height="421.698"
              ></rect>
              <rect
                x="101.089"
                y="22.053"
                style="fill: #df7a6e"
                width="25.818"
                height="421.698"
              ></rect>
              <g>
                <path
                  style="fill: #d8ed8c"
                  d="M307.636,168.357H203.825c-4.456,0-8.068-3.612-8.068-8.068v-35.5c0-4.456,3.612-8.068,8.068-8.068 h103.811c4.456,0,8.068,3.612,8.068,8.068v35.5C315.705,164.744,312.092,168.357,307.636,168.357z"
                ></path>
                <path
                  style="fill: #d8ed8c"
                  d="M308.174,237.205H203.825c-4.456,0-8.068-3.612-8.068-8.068v-9.682c0-4.456,3.612-8.068,8.068-8.068 h104.349c4.456,0,8.068,3.612,8.068,8.068v9.682C316.242,233.593,312.63,237.205,308.174,237.205z"
                ></path>
                <path
                  style="fill: #d8ed8c"
                  d="M308.174,297.448H203.825c-4.456,0-8.068-3.612-8.068-8.068v-9.682c0-4.456,3.612-8.068,8.068-8.068 h104.349c4.456,0,8.068,3.612,8.068,8.068v9.682C316.242,293.836,312.63,297.448,308.174,297.448z"
                ></path>
                <path
                  style="fill: #d8ed8c"
                  d="M308.174,357.691H203.825c-4.456,0-8.068-3.612-8.068-8.068v-9.682c0-4.456,3.612-8.068,8.068-8.068 h104.349c4.456,0,8.068,3.612,8.068,8.068v9.682C316.242,354.078,312.63,357.691,308.174,357.691z"
                ></path>
              </g>
              <rect
                x="290.423"
                y="22.053"
                style="fill: #a6c451"
                width="25.818"
                height="421.698"
              ></rect>
              <rect
                x="307.635"
                y="8.068"
                style="fill: #68727e"
                width="34.424"
                height="449.668"
              ></rect>
              <polygon
                style="fill: #ff8c78"
                points="256,503.994 230.182,478.176 204.363,503.994 204.363,443.752 256,443.752 "
              ></polygon>
              <rect
                x="204.362"
                y="443.752"
                style="fill: #df7a6e"
                width="51.637"
                height="25.818"
              ></rect>
              <path
                d="M393.697,13.985h-43.568V8.068c0-4.456-3.611-8.068-8.068-8.068h-34.424c-4.457,0-8.068,3.612-8.068,8.068v5.917H101.09 c-4.457,0-8.068,3.612-8.068,8.068v309.819c0,4.456,3.611,8.068,8.068,8.068s8.068-3.612,8.068-8.068V30.121h35.5v405.562h-35.5 v-60.78c0-4.456-3.611-8.068-8.068-8.068s-8.068,3.612-8.068,8.068v68.849c0,4.456,3.611,8.068,8.068,8.068h95.205v52.174 c0,7.033,8.794,10.683,13.774,5.705l20.112-20.113l20.112,20.113c4.983,4.981,13.774,1.316,13.774-5.705V451.82h35.5v5.917 c0,4.456,3.611,8.068,8.068,8.068h34.424c4.457,0,8.068-3.612,8.068-8.068v-5.917h43.568c13.94,0,25.28-11.341,25.28-25.28V39.265 C418.978,25.326,407.637,13.985,393.697,13.985z M247.932,484.516l-12.044-12.045c-1.576-1.575-3.641-2.363-5.706-2.363 s-4.13,0.787-5.706,2.363l-12.044,12.045V451.82h35.5V484.516z M160.795,435.683V30.121h138.773v405.562H160.795z M402.841,426.539 c0,5.042-4.102,9.144-9.144,9.144h-43.568V194.175c0-4.456-3.611-8.068-8.068-8.068s-8.068,3.612-8.068,8.068v255.493h-18.288 V16.136h18.288v135.008c0,4.456,3.611,8.068,8.068,8.068s8.068-3.612,8.068-8.068V30.121h43.568c5.042,0,9.144,4.102,9.144,9.144 V426.539z"
              ></path>
            </g>
          </symbol>
          </svg>