<svg style="color: oklch(68.623% 0.20428 42.484);" fill="currentColor"  version="1.1" id="Layer_1" xmlns="http://www.w3.org/2000/svg" xmlns:xlink="http://www.w3.org/1999/xlink" viewBox="0 0 24 24" xml:space="preserve"><g id="SVGRepo_bgCarrier" stroke-width="0"></g><g id="SVGRepo_tracurrentColorerCarrier" stroke-linecurrentccap="round" stroke-linejoin="round"></g><g id="SVGRepo_icurrentColoronCarrier"> <path d="M18,8V6h1V2h-2v2h-1v4h-5V6h1V2h-2v2H9v4H2v2h6v1H7v3H2v2h4v2H5v4h2v-1v-1h1v-4h5v1v1h-1v4h2v-2h1v-4h7v-2h-6v-1h1v-3h5V8 H18z M15,11h-1v3H9v-1h1v-3h5V11z"></path> </g></svg>
